<svg width="41" height="40" viewBox="0 0 41 40" fill="none" xmlns="http://www.w3.org/2000/svg">
<path opacity="0.3" d="M20.4886 1.66666C16.8626 1.66666 13.3181 2.74189 10.3032 4.75638C7.28826 6.77087 4.93843 9.63414 3.55082 12.9841C2.16322 16.3341 1.80016 20.0203 2.50755 23.5766C3.21495 27.133 4.96103 30.3996 7.52499 32.9636C10.089 35.5276 13.3556 37.2736 16.912 37.981C20.4683 38.6884 24.1545 38.3254 27.5045 36.9378C30.8545 35.5502 33.7177 33.2003 35.7322 30.1854C37.7467 27.1705 38.8219 23.626 38.8219 20C38.8164 15.1394 36.8831 10.4794 33.4462 7.04244C30.0092 3.60546 25.3492 1.67216 20.4886 1.66666Z" fill="url(#paint0_linear_0_2090)"/>
<path d="M25.1697 7.77777C23.3301 7.78331 21.5603 8.48284 20.214 9.73656C18.7947 8.54536 16.9742 7.94084 15.1243 8.04643C13.2744 8.15202 11.5346 8.95975 10.2601 10.3047C8.98553 11.6497 8.27245 13.4304 8.26642 15.2833C8.26039 17.1362 8.96186 18.9215 10.2276 20.2748C9.03696 21.6939 8.4327 23.5139 8.53814 25.3633C8.64358 27.2128 9.45077 28.9523 10.795 30.2269C12.1392 31.5015 13.9192 32.2151 15.7716 32.2222C17.624 32.2292 19.4094 31.5291 20.7632 30.2647C22.1825 31.4559 24.003 32.0605 25.8529 31.9549C27.7028 31.8493 29.4426 31.0415 30.7172 29.6966C31.9917 28.3516 32.7048 26.5709 32.7108 24.718C32.7168 22.8651 32.0154 21.0798 30.7496 19.7265C31.6398 18.6653 32.2085 17.372 32.3889 15.9987C32.5692 14.6253 32.3537 13.229 31.7676 11.9739C31.1815 10.7189 30.2492 9.65727 29.0804 8.91393C27.9116 8.17058 26.5549 7.77642 25.1697 7.77777ZM31.4112 15.0595C31.4128 16.5029 30.911 17.9017 29.9923 19.015C28.9217 18.1467 27.6251 17.6025 26.2554 17.4467C24.8857 17.2908 23.5 17.5298 22.2617 18.1355C22.7964 16.8648 22.9577 15.4679 22.7266 14.1088C22.4954 12.7497 21.8815 11.4846 20.9567 10.4621C22.1022 9.40038 23.6079 8.8128 25.1697 8.81802C26.8245 8.81981 28.411 9.47797 29.5811 10.6481C30.7513 11.8182 31.4094 13.4047 31.4112 15.0595ZM15.5474 9.07808C16.7819 9.07808 17.9886 9.44414 19.015 10.13C20.0414 10.8158 20.8414 11.7906 21.3138 12.931C21.7862 14.0715 21.9098 15.3265 21.669 16.5372C21.4282 17.7479 20.8337 18.86 19.9608 19.7329C19.0879 20.6058 17.9758 21.2003 16.7651 21.4411C15.5544 21.6819 14.2994 21.5583 13.1589 21.0859C12.0184 20.6135 11.0437 19.8135 10.3578 18.7871C9.67201 17.7607 9.30595 16.554 9.30595 15.3195C9.30774 13.6648 9.9659 12.0783 11.136 10.9081C12.3061 9.73803 13.8926 9.07987 15.5474 9.07808ZM9.56601 24.9418C9.56503 23.4993 10.0668 22.1015 10.9849 20.9889C12.0555 21.8572 13.3521 22.4014 14.7218 22.5572C16.0915 22.7131 17.4772 22.4741 18.7155 21.8684C18.1813 23.1388 18.0203 24.5351 18.2515 25.8937C18.4826 27.2523 19.0963 28.5169 20.0205 29.5392C18.875 30.6009 17.3694 31.1885 15.8075 31.1833C14.1527 31.1815 12.5662 30.5233 11.3961 29.3532C10.226 28.1831 9.5678 26.5966 9.56601 24.9418ZM25.4298 30.9232C24.1953 30.9232 22.9886 30.5572 21.9622 29.8713C20.9358 29.1855 20.1358 28.2107 19.6634 27.0703C19.191 25.9298 19.0674 24.6748 19.3082 23.4641C19.5491 22.2534 20.1435 21.1413 21.0164 20.2684C21.8893 19.3955 23.0014 18.801 24.2121 18.5602C25.4229 18.3194 26.6778 18.443 27.8183 18.9154C28.9588 19.3878 29.9336 20.1878 30.6194 21.2142C31.3052 22.2406 31.6713 23.4473 31.6713 24.6818C31.6695 26.3365 31.0113 27.923 29.8412 29.0932C28.6711 30.2633 27.0846 30.9214 25.4298 30.9232Z" fill="url(#paint1_linear_0_2090)"/>
<path d="M14.3769 15.926C14.7798 15.926 15.1737 15.8065 15.5086 15.5827C15.8436 15.3589 16.1047 15.0407 16.2589 14.6685C16.4131 14.2963 16.4534 13.8867 16.3748 13.4916C16.2962 13.0964 16.1022 12.7334 15.8173 12.4486C15.5324 12.1637 15.1695 11.9697 14.7743 11.8911C14.3792 11.8125 13.9696 11.8528 13.5974 12.007C13.2252 12.1612 12.907 12.4223 12.6832 12.7572C12.4594 13.0922 12.3399 13.4861 12.3399 13.889C12.3399 14.4292 12.5545 14.9473 12.9365 15.3294C13.3185 15.7114 13.8367 15.926 14.3769 15.926Z" fill="url(#paint2_linear_0_2090)"/>
<path d="M26.3769 27.9258C26.7798 27.9258 27.1736 27.8063 27.5086 27.5825C27.8436 27.3587 28.1047 27.0405 28.2589 26.6683C28.413 26.2961 28.4534 25.8865 28.3748 25.4913C28.2962 25.0962 28.1022 24.7332 27.8173 24.4484C27.5324 24.1635 27.1694 23.9695 26.7743 23.8909C26.3791 23.8123 25.9696 23.8526 25.5973 24.0068C25.2251 24.161 24.907 24.422 24.6831 24.757C24.4593 25.092 24.3398 25.4859 24.3398 25.8888C24.3398 26.429 24.5545 26.9471 24.9365 27.3292C25.3185 27.7112 25.8366 27.9258 26.3769 27.9258Z" fill="url(#paint3_linear_0_2090)"/>
<path d="M14.3769 27.9258C14.7798 27.9258 15.1736 27.8063 15.5086 27.5825C15.8436 27.3587 16.1047 27.0405 16.2589 26.6683C16.413 26.2961 16.4534 25.8865 16.3748 25.4913C16.2962 25.0962 16.1022 24.7332 15.8173 24.4484C15.5324 24.1635 15.1694 23.9695 14.7743 23.8909C14.3791 23.8123 13.9696 23.8526 13.5973 24.0068C13.2251 24.161 12.907 24.422 12.6831 24.757C12.4593 25.092 12.3398 25.4859 12.3398 25.8888C12.3398 26.429 12.5545 26.9471 12.9365 27.3292C13.3185 27.7112 13.8366 27.9258 14.3769 27.9258Z" fill="url(#paint4_linear_0_2090)"/>
<path d="M27.7326 15.5827C27.3976 15.8065 27.0037 15.926 26.6009 15.926C26.0606 15.926 25.5425 15.7114 25.1605 15.3294C24.7784 14.9473 24.5638 14.4292 24.5638 13.889C24.5638 13.4861 24.6833 13.0922 24.9071 12.7572C25.131 12.4223 25.4491 12.1612 25.8213 12.007C26.1935 11.8528 26.6031 11.8125 26.9983 11.8911C27.3934 11.9697 27.7564 12.1637 28.0413 12.4486C28.3261 12.7334 28.5202 13.0964 28.5988 13.4916C28.6773 13.8867 28.637 14.2963 28.4828 14.6685C28.3287 15.0407 28.0676 15.3589 27.7326 15.5827Z" fill="url(#paint5_linear_0_2090)"/>
<defs>
<linearGradient id="paint0_linear_0_2090" x1="2.15527" y1="1.66666" x2="42.5995" y2="6.45996" gradientUnits="userSpaceOnUse">
<stop stop-color="#7D54F3"/>
<stop offset="1" stop-color="#CEBCFF"/>
</linearGradient>
<linearGradient id="paint1_linear_0_2090" x1="8.26638" y1="7.77777" x2="35.2292" y2="10.9733" gradientUnits="userSpaceOnUse">
<stop stop-color="#7D54F3"/>
<stop offset="1" stop-color="#CEBCFF"/>
</linearGradient>
<linearGradient id="paint2_linear_0_2090" x1="12.3399" y1="11.8519" x2="16.8337" y2="12.3845" gradientUnits="userSpaceOnUse">
<stop stop-color="#7D54F3"/>
<stop offset="1" stop-color="#CEBCFF"/>
</linearGradient>
<linearGradient id="paint3_linear_0_2090" x1="24.3398" y1="23.8517" x2="28.8336" y2="24.3843" gradientUnits="userSpaceOnUse">
<stop stop-color="#7D54F3"/>
<stop offset="1" stop-color="#CEBCFF"/>
</linearGradient>
<linearGradient id="paint4_linear_0_2090" x1="12.3398" y1="23.8517" x2="16.8336" y2="24.3843" gradientUnits="userSpaceOnUse">
<stop stop-color="#7D54F3"/>
<stop offset="1" stop-color="#CEBCFF"/>
</linearGradient>
<linearGradient id="paint5_linear_0_2090" x1="24.5638" y1="11.8519" x2="29.0576" y2="12.3845" gradientUnits="userSpaceOnUse">
<stop stop-color="#7D54F3"/>
<stop offset="1" stop-color="#CEBCFF"/>
</linearGradient>
</defs>
</svg>
