<svg width="20" height="21" viewBox="0 0 20 21" fill="none" xmlns="http://www.w3.org/2000/svg">
<g opacity="0.4">
<path d="M14.9834 9.49167V12.825C14.9834 13.0417 14.975 13.25 14.95 13.45C14.7584 15.7 13.4334 16.8167 10.9917 16.8167H10.6584C10.45 16.8167 10.25 16.9167 10.125 17.0833L9.12503 18.4167C8.68336 19.0083 7.96669 19.0083 7.52502 18.4167L6.52501 17.0833C6.41668 16.9417 6.17502 16.8167 5.99169 16.8167H5.65836C3.00003 16.8167 1.66669 16.1583 1.66669 12.825V9.49167C1.66669 7.05001 2.79169 5.72501 5.03336 5.53334C5.23336 5.50834 5.44169 5.5 5.65836 5.5H10.9917C13.65 5.5 14.9834 6.83334 14.9834 9.49167Z" fill="url(#paint0_linear_0_2039)"/>
<path d="M14.9834 9.49167V12.825C14.9834 13.0417 14.975 13.25 14.95 13.45C14.7584 15.7 13.4334 16.8167 10.9917 16.8167H10.6584C10.45 16.8167 10.25 16.9167 10.125 17.0833L9.12503 18.4167C8.68336 19.0083 7.96669 19.0083 7.52502 18.4167L6.52501 17.0833C6.41668 16.9417 6.17502 16.8167 5.99169 16.8167H5.65836C3.00003 16.8167 1.66669 16.1583 1.66669 12.825V9.49167C1.66669 7.05001 2.79169 5.72501 5.03336 5.53334C5.23336 5.50834 5.44169 5.5 5.65836 5.5H10.9917C13.65 5.5 14.9834 6.83334 14.9834 9.49167Z" fill="url(#paint1_linear_0_2039)"/>
</g>
<path d="M8.32497 12.1667C7.8583 12.1667 7.49164 11.7917 7.49164 11.3333C7.49164 10.875 7.86664 10.5 8.32497 10.5C8.7833 10.5 9.1583 10.875 9.1583 11.3333C9.1583 11.7917 8.79164 12.1667 8.32497 12.1667Z" fill="url(#paint2_linear_0_2039)"/>
<path d="M8.32497 12.1667C7.8583 12.1667 7.49164 11.7917 7.49164 11.3333C7.49164 10.875 7.86664 10.5 8.32497 10.5C8.7833 10.5 9.1583 10.875 9.1583 11.3333C9.1583 11.7917 8.79164 12.1667 8.32497 12.1667Z" fill="url(#paint3_linear_0_2039)"/>
<path d="M11.2417 12.1667C10.775 12.1667 10.4083 11.7917 10.4083 11.3333C10.4083 10.875 10.7833 10.5 11.2417 10.5C11.7 10.5 12.075 10.875 12.075 11.3333C12.075 11.7917 11.7 12.1667 11.2417 12.1667Z" fill="url(#paint4_linear_0_2039)"/>
<path d="M11.2417 12.1667C10.775 12.1667 10.4083 11.7917 10.4083 11.3333C10.4083 10.875 10.7833 10.5 11.2417 10.5C11.7 10.5 12.075 10.875 12.075 11.3333C12.075 11.7917 11.7 12.1667 11.2417 12.1667Z" fill="url(#paint5_linear_0_2039)"/>
<path d="M5.41665 12.1667C4.94998 12.1667 4.58331 11.7917 4.58331 11.3333C4.58331 10.875 4.95831 10.5 5.41665 10.5C5.87498 10.5 6.24998 10.875 6.24998 11.3333C6.24998 11.7917 5.87498 12.1667 5.41665 12.1667Z" fill="url(#paint6_linear_0_2039)"/>
<path d="M5.41665 12.1667C4.94998 12.1667 4.58331 11.7917 4.58331 11.3333C4.58331 10.875 4.95831 10.5 5.41665 10.5C5.87498 10.5 6.24998 10.875 6.24998 11.3333C6.24998 11.7917 5.87498 12.1667 5.41665 12.1667Z" fill="url(#paint7_linear_0_2039)"/>
<path d="M18.3167 6.15835V9.49168C18.3167 11.9417 17.1917 13.2583 14.95 13.45C14.975 13.25 14.9833 13.0417 14.9833 12.825V9.49168C14.9833 6.83335 13.65 5.50001 10.9917 5.50001H5.65833C5.44166 5.50001 5.23333 5.50835 5.03333 5.53335C5.22499 3.29168 6.54999 2.16667 8.99166 2.16667H14.325C16.9833 2.16667 18.3167 3.50001 18.3167 6.15835Z" fill="url(#paint8_linear_0_2039)"/>
<path d="M18.3167 6.15835V9.49168C18.3167 11.9417 17.1917 13.2583 14.95 13.45C14.975 13.25 14.9833 13.0417 14.9833 12.825V9.49168C14.9833 6.83335 13.65 5.50001 10.9917 5.50001H5.65833C5.44166 5.50001 5.23333 5.50835 5.03333 5.53335C5.22499 3.29168 6.54999 2.16667 8.99166 2.16667H14.325C16.9833 2.16667 18.3167 3.50001 18.3167 6.15835Z" fill="url(#paint9_linear_0_2039)"/>
<defs>
<linearGradient id="paint0_linear_0_2039" x1="1.66669" y1="5.5" x2="16.3566" y2="7.2353" gradientUnits="userSpaceOnUse">
<stop stop-color="#BE68FC"/>
<stop offset="1" stop-color="#9D19FF"/>
</linearGradient>
<linearGradient id="paint1_linear_0_2039" x1="1.66669" y1="5.5" x2="16.3566" y2="7.2353" gradientUnits="userSpaceOnUse">
<stop stop-color="#7D54F3"/>
<stop offset="1" stop-color="#CEBCFF"/>
</linearGradient>
<linearGradient id="paint2_linear_0_2039" x1="7.49164" y1="10.5" x2="9.33001" y2="10.7179" gradientUnits="userSpaceOnUse">
<stop stop-color="#BE68FC"/>
<stop offset="1" stop-color="#9D19FF"/>
</linearGradient>
<linearGradient id="paint3_linear_0_2039" x1="7.49164" y1="10.5" x2="9.33001" y2="10.7179" gradientUnits="userSpaceOnUse">
<stop stop-color="#7D54F3"/>
<stop offset="1" stop-color="#CEBCFF"/>
</linearGradient>
<linearGradient id="paint4_linear_0_2039" x1="10.4083" y1="10.5" x2="12.2467" y2="10.7179" gradientUnits="userSpaceOnUse">
<stop stop-color="#BE68FC"/>
<stop offset="1" stop-color="#9D19FF"/>
</linearGradient>
<linearGradient id="paint5_linear_0_2039" x1="10.4083" y1="10.5" x2="12.2467" y2="10.7179" gradientUnits="userSpaceOnUse">
<stop stop-color="#7D54F3"/>
<stop offset="1" stop-color="#CEBCFF"/>
</linearGradient>
<linearGradient id="paint6_linear_0_2039" x1="4.58331" y1="10.5" x2="6.42169" y2="10.7179" gradientUnits="userSpaceOnUse">
<stop stop-color="#BE68FC"/>
<stop offset="1" stop-color="#9D19FF"/>
</linearGradient>
<linearGradient id="paint7_linear_0_2039" x1="4.58331" y1="10.5" x2="6.42169" y2="10.7179" gradientUnits="userSpaceOnUse">
<stop stop-color="#7D54F3"/>
<stop offset="1" stop-color="#CEBCFF"/>
</linearGradient>
<linearGradient id="paint8_linear_0_2039" x1="5.03333" y1="2.16667" x2="19.6072" y2="4.20008" gradientUnits="userSpaceOnUse">
<stop stop-color="#BE68FC"/>
<stop offset="1" stop-color="#9D19FF"/>
</linearGradient>
<linearGradient id="paint9_linear_0_2039" x1="5.03333" y1="2.16667" x2="19.6072" y2="4.20008" gradientUnits="userSpaceOnUse">
<stop stop-color="#7D54F3"/>
<stop offset="1" stop-color="#CEBCFF"/>
</linearGradient>
</defs>
</svg>
