<svg width="20" height="21" viewBox="0 0 20 21" fill="none" xmlns="http://www.w3.org/2000/svg">
<path d="M6.89163 18.8333C8.21663 18.8333 8.74996 18.3333 8.74996 17.0833V3.91666C8.74996 2.66666 8.21663 2.16666 6.89163 2.16666H3.52496C2.19996 2.16666 1.66663 2.66666 1.66663 3.91666V17.0833C1.66663 18.3333 2.19996 18.8333 3.52496 18.8333" stroke="#4A5157" stroke-width="1.5" stroke-linecap="round" stroke-linejoin="round"/>
<path d="M13.1083 2.16666C11.7833 2.16666 11.25 2.64166 11.25 3.81666V7.59166C11.25 8.77499 11.7833 9.24166 13.1083 9.24166H16.475C17.8 9.24166 18.3333 8.76666 18.3333 7.59166V3.81666C18.3333 2.64166 17.8 2.16666 16.475 2.16666" stroke="#4A5157" stroke-width="1.5" stroke-linecap="round" stroke-linejoin="round"/>
<path d="M18.3333 16.975V13.6083C18.3333 12.2833 17.8 11.75 16.475 11.75H13.1083C11.7833 11.75 11.25 12.2833 11.25 13.6083V16.975C11.25 18.3 11.7833 18.8333 13.1083 18.8333H16.475C17.8 18.8333 18.3333 18.3 18.3333 16.975Z" stroke="#4A5157" stroke-width="1.5" stroke-linecap="round" stroke-linejoin="round"/>
</svg>
